# Blender v3.2.0 OBJ File: ''
# www.blender.org
mtllib bonfire.mtl
o Cube.005_Cube.010
v -0.966144 -0.377921 0.300729
v -0.966144 -0.002921 0.300729
v 0.907570 -0.377921 0.370167
v 0.907570 -0.002921 0.370167
v -0.980032 -0.377921 0.675472
v -0.980032 -0.002921 0.675472
v 0.893682 -0.377921 0.744910
v 0.893682 -0.002921 0.744910
v -0.863843 -0.377921 0.864899
v -0.863843 -0.377921 -0.385101
v -0.863843 -0.752921 0.864899
v -0.863843 -0.752921 -0.385101
v -0.488843 -0.377921 0.864899
v -0.488843 -0.377921 -0.385101
v -0.488843 -0.752921 0.864899
v -0.488843 -0.752921 -0.385101
v -0.990119 -1.002921 1.002792
v -0.990119 -0.752921 1.002792
v -0.990119 -1.002921 -0.997209
v -0.990119 -0.752921 -0.997209
v 1.009881 -1.002921 1.002792
v 1.009881 -0.752921 1.002792
v 1.009881 -1.002921 -0.997209
v 1.009881 -0.752921 -0.997209
v 0.369402 -0.752921 0.966071
v 0.369402 -0.377921 0.966071
v 0.426512 -0.752921 -0.908059
v 0.426512 -0.377921 -0.908059
v 0.744228 -0.752921 0.977493
v 0.744228 -0.377921 0.977493
v 0.801338 -0.752921 -0.896637
v 0.801338 -0.377921 -0.896637
v 0.814906 -0.250699 -0.427883
v 0.696912 0.105254 -0.427883
v -0.727556 -0.762007 -0.427883
v -0.845550 -0.406054 -0.427883
v 0.814906 -0.250699 -0.802882
v 0.696912 0.105254 -0.802882
v -0.727556 -0.762007 -0.802883
v -0.845550 -0.406054 -0.802883
v 0.797806 -0.377921 0.079503
v 0.797806 -0.002921 0.079503
v -0.818365 -0.377921 0.248659
v -0.818365 -0.002921 0.248659
v 0.758770 -0.377921 -0.293460
v 0.758770 -0.002921 -0.293460
v -0.857401 -0.377921 -0.124303
v -0.857401 -0.002921 -0.124303
vt 0.200000 1.000000
vt 0.000000 1.000000
vt 0.000000 0.000000
vt 0.200000 0.000000
vt 1.000000 0.000000
vt 1.000000 0.200000
vt 0.800000 0.200000
vt 0.800000 0.000000
vt 0.400000 1.000000
vt 0.200000 1.000000
vt 0.200000 0.000000
vt 0.400000 0.000000
vt 1.000000 0.200000
vt 1.000000 0.400000
vt 0.800000 0.400000
vt 0.800000 0.200000
vt 0.600000 0.000000
vt 0.800000 1.000000
vt 0.600000 1.000000
vt 0.600000 1.000000
vt 0.400000 1.000000
vt 0.400000 0.000000
vt 0.600000 0.000000
vt 0.600000 -0.000000
vt 0.600000 0.666667
vt 0.400000 0.666667
vt 0.400000 -0.000000
vt 0.200000 0.666667
vt 0.200000 -0.000000
vt 0.400000 -0.000000
vt 0.400000 0.666667
vt 0.600000 0.666667
vt 0.600000 -0.000000
vt 0.800000 -0.000000
vt 0.800000 0.666667
vt 0.000000 0.666667
vt 0.000000 -0.000000
vt 0.200000 -0.000000
vt 0.200000 0.666667
vt 1.000000 0.400000
vt 0.800000 0.400000
vt 0.800000 0.200000
vt 1.000000 0.200000
vt 1.000000 -0.000000
vt 1.000000 0.200000
vt 0.800000 0.200000
vt 0.200000 1.000000
vt 0.000000 1.000000
vt 0.000000 0.000000
vt 0.200000 0.000000
vt 1.000000 0.000000
vt 1.000000 0.200000
vt 0.800000 0.200000
vt 0.800000 0.000000
vt 0.400000 1.000000
vt 0.200000 1.000000
vt 0.200000 0.000000
vt 0.400000 0.000000
vt 1.000000 0.200000
vt 1.000000 0.400000
vt 0.800000 0.400000
vt 0.800000 0.200000
vt 0.400000 0.000000
vt 0.600000 0.000000
vt 0.600000 1.000000
vt 0.400000 1.000000
vt 0.800000 1.000000
vt 0.600000 1.000000
vt 0.600000 0.000000
vt 0.800000 0.000000
vt 0.200000 0.866666
vt 0.000000 0.866666
vt 0.000000 0.000000
vt 0.200000 0.000000
vt 1.000000 0.000000
vt 1.000000 0.200000
vt 0.800000 0.200000
vt 0.800000 0.000000
vt 0.200000 0.000000
vt 0.400000 0.000000
vt 0.400000 0.866666
vt 0.200000 0.866666
vt 1.000000 0.200000
vt 1.000000 0.400000
vt 0.800000 0.400000
vt 0.800000 0.200000
vt 0.400000 0.000000
vt 0.600000 0.000000
vt 0.600000 0.866666
vt 0.400000 0.866666
vt 0.600000 0.000000
vt 0.800000 0.000000
vt 0.800000 0.866666
vt 0.600000 0.866666
vt 0.200000 0.866666
vt 0.000000 0.866666
vt 0.000000 0.000000
vt 0.200000 0.000000
vt 1.000000 0.000000
vt 1.000000 0.200000
vt 0.800000 0.200000
vt 0.800000 0.000000
vt 0.400000 0.866666
vt 0.200000 0.866666
vt 0.200000 0.000000
vt 0.400000 0.000000
vt 1.000000 0.200000
vt 1.000000 0.400000
vt 0.800000 0.400000
vt 0.800000 0.200000
vt 0.800000 0.866666
vt 0.600000 0.866666
vt 0.600000 0.000000
vt 0.800000 0.000000
vt 0.400000 0.000000
vt 0.600000 0.000000
vt 0.600000 0.866666
vt 0.400000 0.866666
vt 0.900000 0.500000
vt 0.800000 0.500000
vt 0.800000 0.000000
vt 0.900000 0.000000
vt 1.000000 0.500000
vt 0.900000 0.500000
vt 0.900000 0.000000
vt 1.000000 0.000000
vt 1.000000 1.000000
vt 0.900000 1.000000
vt 0.900000 0.500000
vt 1.000000 0.500000
vt 0.900000 1.000000
vt 0.800000 1.000000
vt 0.000000 0.000000
vt 0.800000 0.000000
vt 0.800000 0.500000
vt 0.000000 0.500000
vt 0.000000 0.500000
vt 0.800000 0.500000
vt 0.800000 1.000000
vt 0.000000 1.000000
vn 0.0370 0.0000 -0.9993
vn 0.9993 0.0000 0.0370
vn -0.0370 0.0000 0.9993
vn -0.9993 0.0000 -0.0370
vn 0.0000 -1.0000 0.0000
vn 0.0000 1.0000 0.0000
vn -1.0000 0.0000 0.0000
vn 1.0000 0.0000 0.0000
vn 0.0000 0.0000 1.0000
vn 0.0000 0.0000 -1.0000
vn -0.9995 0.0000 -0.0305
vn 0.0305 0.0000 -0.9995
vn 0.9995 0.0000 0.0305
vn -0.0305 0.0000 0.9995
vn -0.9492 -0.3147 0.0000
vn 0.9492 0.3147 0.0000
vn 0.3147 -0.9492 0.0000
vn -0.3147 0.9492 0.0000
vn 0.1041 -0.0000 0.9946
vn -0.9946 -0.0000 0.1041
vn -0.1041 0.0000 -0.9946
vn 0.9946 -0.0000 -0.1041
g Cube.005_Cube.010_brevno_3
usemtl brevno_3
s off
f 1/1/1 2/2/1 4/3/1 3/4/1
f 3/5/2 4/6/2 8/7/2 7/8/2
f 7/9/3 8/10/3 6/11/3 5/12/3
f 5/13/4 6/14/4 2/15/4 1/16/4
f 3/17/5 7/8/5 5/18/5 1/19/5
f 8/20/6 4/21/6 2/22/6 6/23/6
f 9/24/7 10/25/7 12/26/7 11/27/7
f 11/28/5 12/29/5 16/30/5 15/31/5
f 15/32/8 16/33/8 14/34/8 13/35/8
f 13/36/6 14/37/6 10/38/6 9/39/6
f 11/40/9 15/41/9 13/42/9 9/43/9
f 16/44/10 12/45/10 10/46/10 14/34/10
f 25/47/11 26/48/11 28/49/11 27/50/11
f 27/51/12 28/52/12 32/53/12 31/54/12
f 31/55/13 32/56/13 30/57/13 29/58/13
f 29/59/14 30/60/14 26/61/14 25/62/14
f 27/63/5 31/64/5 29/65/5 25/66/5
f 32/67/6 28/68/6 26/69/6 30/70/6
f 33/71/9 34/72/9 36/73/9 35/74/9
f 35/75/15 36/76/15 40/77/15 39/78/15
f 39/79/10 40/80/10 38/81/10 37/82/10
f 37/83/16 38/84/16 34/85/16 33/86/16
f 35/87/17 39/88/17 37/89/17 33/90/17
f 40/91/18 36/92/18 34/93/18 38/94/18
f 41/95/19 42/96/19 44/97/19 43/98/19
f 43/99/20 44/100/20 48/101/20 47/102/20
f 47/103/21 48/104/21 46/105/21 45/106/21
f 45/107/22 46/108/22 42/109/22 41/110/22
f 43/111/5 47/112/5 45/113/5 41/114/5
f 48/115/6 44/116/6 42/117/6 46/118/6
g Cube.005_Cube.010_niz
usemtl niz
f 17/119/7 18/120/7 20/121/7 19/122/7
f 19/123/10 20/124/10 24/125/10 23/126/10
f 23/127/8 24/128/8 22/129/8 21/130/8
f 21/131/9 22/132/9 18/120/9 17/119/9
f 19/133/5 23/134/5 21/135/5 17/136/5
f 24/137/6 20/138/6 18/139/6 22/140/6
